<svg width="1029" height="173" viewBox="0 0 1029 173" fill="none" xmlns="http://www.w3.org/2000/svg">
<path fill-rule="evenodd" clip-rule="evenodd" d="M177.966 86.719C177.985 85.9578 177.995 85.1939 177.995 84.4275C177.995 37.3927 140.368 0 92.8623 0C45.5923 0 8.19961 37.3927 8.19961 84.4275C8.19961 91.859 9.12382 99.0522 10.8653 105.898L51.1969 101.269C49.2471 96.1824 48.1792 90.6595 48.1792 84.8979C48.1792 60.2046 68.169 39.0389 93.0975 39.0389C117.556 39.0389 138.016 60.2046 138.016 84.8979C138.016 87.0892 137.858 89.2461 137.553 91.3575L177.966 86.719ZM359.798 65.8488L305.203 72.1151V3.52761H407.738V42.3314H345.182V65.8488H359.798ZM470.017 4.46831C496.602 7.40046 517.175 23.4935 523.363 47.0751L482.071 51.8145C477.041 44.2327 466.713 41.1555 455.201 41.1555H454.731V54.9525L414.751 59.5413V3.52761H440.621C459.905 3.52761 465.079 3.99797 470.017 4.46831ZM635.751 34.1755C626.51 17.7173 609.005 6.82866 587.604 4.46831C582.666 3.99797 577.492 3.52761 558.208 3.52761H532.339V46.0449L572.318 41.4562V41.1555H572.788C573.426 41.1555 574.06 41.1649 574.689 41.184L635.751 34.1755ZM649.926 32.5486L689.905 27.9598V3.52761H649.926V32.5486ZM786.745 16.8447L697.006 27.1447V3.52761H725.227C740.514 3.52761 751.332 4.23314 757.917 5.40901C767.839 7.09796 777.741 11.0191 786.745 16.8447ZM828.833 12.0141L902.771 3.52761H828.833V12.0141ZM297.271 73.0254L255.984 77.7642C257.54 70.5159 258.278 62.5208 258.278 53.8549V3.52761H298.258V54.7956C298.258 61.1611 297.923 67.2363 297.271 73.0254ZM183.022 86.1386L223.002 81.5499V3.52761H183.022V86.1386ZM817.808 16.3212L897.259 7.20206H920.344V46.0058H857.788V69.5232H900.119V107.151H857.788V130.669H920.344V169.472H817.808V16.3212ZM685.982 31.4519L776.543 21.0576C797.227 34.7903 812.976 58.6439 812.976 88.5723C812.976 125.73 788.753 153.951 759.121 164.063C748.774 167.591 735.839 169.472 714.203 169.472H685.982V31.4519ZM726.432 46.0058H725.962V130.669H726.432C756.77 130.669 772.997 110.679 772.997 88.5723C772.997 66.466 756.77 46.0058 726.432 46.0058ZM678.881 32.2669L638.902 36.8557V169.472H678.881V32.2669ZM521.315 50.352V169.472H561.294V125.965H561.764C580.108 125.965 593.513 140.781 593.513 158.889V169.472H633.493V158.889C633.493 135.842 625.026 118.675 610.21 107.857C623.85 98.6848 631.846 84.5744 631.846 65.9956C631.846 55.7451 629.419 46.4507 625.056 38.4448L567.256 45.079C581.001 46.3713 591.867 52.812 591.867 67.1715C591.867 83.3985 577.991 88.3372 561.764 88.3372H561.294V45.7633L521.315 50.352ZM403.727 169.472V63.8484L443.707 59.2597V88.3372H444.177C460.404 88.3372 474.28 83.3985 474.28 67.1715C474.28 62.75 473.249 59.0793 471.422 56.0786L512.497 51.3641C513.651 55.974 514.259 60.865 514.259 65.9956C514.259 84.5744 506.263 98.6848 492.623 107.857C507.439 118.675 515.905 135.842 515.905 158.889V169.472H475.926V158.889C475.926 140.781 462.521 125.965 444.177 125.965H443.707V169.472H403.727ZM294.178 76.4222L354.286 69.5232H376.489V107.151H334.158V130.669H396.714V169.472H294.178V76.4222ZM286.174 77.341L244.818 82.0877C240.46 101.646 230.051 115.682 211.978 122.673V85.857L171.998 90.4457V169.472C233.234 169.472 278.766 140.615 286.174 77.341ZM-4.57764e-05 110.187C9.54409 146.571 42.2224 173 81.8382 173C128.359 173 165.407 136.915 166.923 91.0282L126.431 95.6759C122.991 117.272 104.162 133.961 82.0734 133.961C63.1359 133.961 47.0486 122.153 40.4099 105.549L-4.57764e-05 110.187ZM926.433 169.472H978.877C1006.16 169.472 1028.5 149.482 1028.5 119.38C1028.5 105.975 1024.03 93.2758 1014.39 84.8095C1005.45 77.0488 993.693 73.5212 976.525 68.5825C969.235 66.466 965.942 61.9977 965.942 56.1183C965.942 50.4741 969.941 46.0058 978.407 46.0058H1008.51V7.20206H986.638C975.82 7.20206 968.765 7.20206 961.944 8.61312C940.073 13.0814 925.963 31.1898 925.963 55.8831C925.963 69.0529 929.961 80.5764 938.662 89.513C946.442 97.5214 955.78 100.632 975.773 107.292L977.466 107.857C983.11 109.738 988.519 113.971 988.519 120.321C988.519 125.965 984.051 130.669 974.174 130.669H926.433V169.472Z" fill="#F2D51E"/>
</svg>
