<?xml version="1.0" standalone="no"?>
<!DOCTYPE svg PUBLIC "-//W3C//DTD SVG 20010904//EN"
 "http://www.w3.org/TR/2001/REC-SVG-20010904/DTD/svg10.dtd">
<svg version="1.0" xmlns="http://www.w3.org/2000/svg"
 width="830.000000pt" height="830.000000pt" viewBox="0 0 830.000000 830.000000"
 preserveAspectRatio="xMidYMid meet">
<metadata>
Created by potrace 1.14, written by Peter Selinger 2001-2017
</metadata>
<g transform="translate(0.000000,830.000000) scale(0.100000,-0.100000)"
fill="#000000" stroke="none">
<path d="M3958 7705 c-2 -2 -35 -6 -73 -10 -71 -5 -141 -13 -184 -20 -13 -2
-45 -7 -70 -11 -25 -3 -86 -15 -136 -26 -49 -11 -101 -21 -114 -24 -92 -19
-397 -113 -466 -144 -11 -5 -54 -23 -95 -41 -847 -359 -1515 -1034 -1866
-1884 -59 -143 -149 -426 -168 -525 -2 -14 -14 -68 -24 -120 -20 -95 -25 -122
-37 -215 -4 -27 -9 -61 -11 -75 -26 -161 -25 -714 1 -849 2 -10 6 -42 10 -72
14 -116 65 -364 80 -389 3 -6 10 -8 13 -6 4 2 34 7 67 10 33 4 71 8 85 11 22
3 86 11 170 20 14 1 59 6 100 9 41 4 82 9 90 11 8 2 44 7 80 10 36 4 76 8 90
10 24 3 56 7 175 20 28 3 66 7 85 10 35 5 85 10 183 21 28 3 63 7 77 9 22 3
87 11 185 21 101 11 236 27 248 30 4 1 14 2 21 3 13 1 13 6 0 38 -31 73 -71
223 -89 328 -4 22 -9 51 -11 65 -10 52 -12 398 -3 460 5 36 12 83 15 105 30
213 127 472 253 680 261 430 676 741 1150 861 89 23 112 27 194 38 167 23 335
23 482 1 17 -3 48 -7 70 -10 22 -4 58 -11 80 -17 22 -5 49 -12 60 -14 101 -19
323 -112 460 -191 183 -106 410 -299 517 -438 12 -16 28 -36 35 -43 7 -7 46
-64 87 -125 172 -258 276 -538 314 -842 9 -74 8 -386 -1 -437 -4 -20 -3 -39 1
-42 4 -2 39 -1 77 4 39 5 97 12 130 15 33 4 73 9 90 11 16 3 52 7 80 9 27 3
66 7 85 9 19 3 60 8 90 11 30 4 66 8 80 10 14 2 52 7 85 10 33 3 76 7 95 10
79 9 137 16 175 20 22 2 60 6 85 9 25 4 63 8 85 10 22 2 63 7 90 10 92 12 110
14 170 21 33 3 74 8 90 10 17 2 60 7 98 10 59 7 68 10 73 30 6 24 -2 335 -10
390 -3 17 -10 77 -17 135 -9 85 -36 238 -65 375 -13 62 -79 288 -105 358 -194
525 -449 927 -828 1308 -375 375 -847 668 -1351 839 -126 42 -391 113 -465
124 -22 3 -62 10 -90 16 -27 5 -68 12 -90 14 -82 10 -131 16 -170 22 -45 6
-611 14 -617 9z"/>
<path d="M7898 3983 c7 -3 16 -2 19 1 4 3 -2 6 -13 5 -11 0 -14 -3 -6 -6z"/>
<path d="M7270 3916 c-3 -2 -34 -7 -70 -10 -36 -3 -74 -8 -85 -10 -11 -2 -54
-7 -95 -11 -41 -4 -84 -9 -94 -11 -11 -2 -44 -6 -75 -9 -31 -3 -72 -7 -91 -10
-19 -2 -60 -7 -90 -10 -30 -4 -66 -8 -80 -10 -14 -2 -52 -6 -85 -10 -33 -3
-78 -8 -100 -11 -22 -3 -60 -7 -85 -9 -42 -4 -86 -9 -170 -20 -19 -2 -60 -7
-90 -10 -48 -5 -98 -11 -253 -30 -20 -2 -65 -7 -100 -11 -90 -10 -92 -10 -93
-20 -6 -98 -84 -349 -155 -499 -36 -77 -140 -255 -173 -297 -12 -14 -32 -41
-46 -59 -178 -236 -489 -477 -745 -579 -33 -13 -64 -26 -70 -30 -5 -4 -19 -10
-30 -13 -11 -3 -58 -17 -105 -31 -47 -15 -94 -28 -105 -30 -239 -44 -269 -47
-420 -46 -137 1 -173 4 -305 26 -200 34 -324 75 -517 170 -330 163 -628 446
-799 760 -20 38 -40 74 -44 79 -4 6 -20 41 -35 78 l-29 69 -65 -7 c-36 -3 -79
-8 -96 -10 -33 -4 -200 -24 -255 -30 -19 -2 -57 -6 -85 -10 -27 -3 -68 -8 -90
-10 -22 -2 -58 -6 -80 -9 -22 -3 -65 -8 -95 -11 -30 -3 -89 -9 -130 -15 -108
-13 -180 -22 -220 -25 -19 -2 -53 -6 -75 -9 -40 -5 -80 -10 -190 -21 -33 -3
-71 -8 -85 -10 -14 -2 -50 -7 -80 -10 -83 -9 -135 -16 -138 -20 -4 -4 39 -150
75 -255 142 -413 357 -787 656 -1145 62 -73 282 -293 362 -362 349 -298 754
-530 1160 -665 219 -72 380 -112 580 -142 61 -10 121 -19 135 -22 74 -12 231
-19 440 -19 243 0 409 10 520 30 14 3 45 7 70 11 25 3 53 8 63 10 10 3 30 7
45 9 15 2 68 13 117 25 50 12 99 23 109 26 31 6 215 63 289 90 186 66 410 170
572 264 50 29 99 58 110 64 11 6 56 36 100 65 564 382 1004 913 1268 1532 66
154 146 387 172 499 1 8 10 42 18 75 9 33 21 88 27 122 11 61 15 84 25 141 3
15 8 54 11 87 4 33 8 62 10 65 4 8 17 191 18 250 1 33 -3 46 -14 48 -9 1 -18
1 -20 -2z"/>
</g>
</svg>
